<svg xmlns="http://www.w3.org/2000/svg" width="900" height="500" viewBox="0 0 900 500" role="img" aria-label="Illustration abstraite de circuit électronique"><defs><linearGradient id="g" x1="0" x2="1" y1="0" y2="1"><stop stop-color="#33e6c4"/><stop offset="1" stop-color="#5ab8ff"/></linearGradient><filter id="glow"><feGaussianBlur stdDeviation="4" result="b"/><feMerge><feMergeNode in="b"/><feMergeNode in="SourceGraphic"/></feMerge></filter></defs><rect width="900" height="500" rx="36" fill="#07111f"/><g stroke="url(#g)" stroke-width="3" fill="none" opacity=".7" filter="url(#glow)"><path d="M80 110h170v85h150v-55h180v120h240"/><path d="M120 360h180v-90h105v70h155v-105h220"/><path d="M220 80v80M525 90v50M690 260v105M400 340v80"/><circle cx="80" cy="110" r="9" fill="#33e6c4"/><circle cx="820" cy="260" r="9" fill="#5ab8ff"/><circle cx="120" cy="360" r="9" fill="#33e6c4"/><circle cx="780" cy="235" r="9" fill="#5ab8ff"/></g><g fill="none" stroke="#fff" stroke-opacity=".18"><rect x="380" y="170" width="150" height="150" rx="18"/><rect x="410" y="200" width="90" height="90" rx="12"/></g><text x="450" y="257" fill="#33e6c4" text-anchor="middle" font-family="Arial" font-size="38" font-weight="700">GEII</text></svg>